<?xml version="1.0" encoding="UTF-8"?>
<svg version="1.1" xmlns="http://www.w3.org/2000/svg" width="1060" height="706">
<path d="M0 0 C349.8 0 699.6 0 1060 0 C1060 232.98 1060 465.96 1060 706 C710.2 706 360.4 706 0 706 C0 473.02 0 240.04 0 0 Z " fill="#01487F" transform="translate(0,0)"/>
<path d="M0 0 C349.47 0 698.94 0 1059 0 C1059 0.33 1059 0.66 1059 1 C1058.19689646 1.00071214 1057.39379293 1.00142429 1056.56635292 1.00215801 C969.16615535 1.07969449 881.76595891 1.15845762 794.36576843 1.2436676 C793.06104175 1.24493928 791.75631508 1.24621096 790.41205122 1.24752118 C762.74999188 1.27448983 735.08793273 1.3016576 707.42587381 1.32906473 C693.53068887 1.34283164 679.63550389 1.35655921 665.74031886 1.37024957 C663.64425837 1.37231496 661.54819788 1.37438148 659.45213739 1.37644804 C627.16867467 1.40826726 594.88521141 1.43924166 562.60174561 1.46777344 C561.56024448 1.46869393 561.56024448 1.46869393 560.49770292 1.46963302 C549.30269718 1.47952218 538.10769136 1.48934056 526.91268555 1.49914955 C494.67489069 1.52739716 462.43709668 1.55616657 430.19930553 1.58840275 C429.20527521 1.58939635 429.20527521 1.58939635 428.19116346 1.59041002 C414.29809072 1.60430603 400.40501822 1.61842662 386.51194599 1.63282111 C380.00627221 1.63956006 373.50059839 1.64626175 366.99492455 1.65294075 C365.71446432 1.65425648 364.43400409 1.65557221 363.11474203 1.6569278 C342.46971659 1.67804549 321.82468957 1.69572241 301.17965991 1.71212531 C280.44452898 1.72867277 259.70940405 1.74881488 238.97428022 1.77266841 C226.64220361 1.78674475 214.31013169 1.79802288 201.97804919 1.80536438 C193.75144604 1.81053276 185.52485182 1.81927725 177.29825539 1.83098774 C172.60369552 1.8375663 167.90914855 1.84253491 163.21458379 1.84316199 C158.94897038 1.84376224 154.68338799 1.84888906 150.4177839 1.85772062 C148.87925836 1.86009604 147.34072911 1.86078192 145.80220218 1.8596265 C143.72094147 1.85830327 141.63978105 1.8630681 139.55853158 1.86938947 C138.40380702 1.87048134 137.24908246 1.8715732 136.05936624 1.87269815 C133.25532263 1.98937589 130.72648638 2.35840786 128 3 C128.0309375 4.2065625 128.0309375 4.2065625 128.0625 5.4375 C128 8 128 8 127 9 C127.99 9.99 127.99 9.99 129 11 C128.01 12.98 127.02 14.96 126 17 C125.505 16.01 125.505 16.01 125 15 C125 17.62113708 125.31292445 19.50935112 126 22 C125.34 22 124.68 22 124 22 C123.896875 22.639375 123.79375 23.27875 123.6875 23.9375 C122.96108452 27.17335077 121.95858614 30.21042872 120.8828125 33.34375 C119.87462359 36.37723874 118.97183022 39.43548556 118.0625 42.5 C116.62798482 47.21734799 114.97125701 51.6572713 112.83203125 56.09765625 C111.93529081 57.9929288 111.93529081 57.9929288 111.50390625 60.1015625 C111 62 111 62 109.125 64.3125 C106.64865089 67.44435328 105.45207868 70.29719937 104 74 C106.43929746 72.07423885 108.80090595 70.19909405 111 68 C110.875 70.1875 110.875 70.1875 110 73 C108.5462521 74.25991484 107.08492515 75.51510436 105.55078125 76.67578125 C103.1562761 78.72045945 101.7098655 81.37820624 100 84 C99.35804687 84.46019531 98.71609375 84.92039062 98.0546875 85.39453125 C95.69649326 87.2371507 94.65289109 88.93424416 93.25 91.5625 C92.82203125 92.34753906 92.3940625 93.13257812 91.953125 93.94140625 C90.85995006 95.92439559 90.85995006 95.92439559 91 98 C92.32 97.34 93.64 96.68 95 96 C94.505 97.485 94.505 97.485 94 99 C95.485 99.495 95.485 99.495 97 100 C96.505 100.45375 96.01 100.9075 95.5 101.375 C93.77390663 102.87635519 93.77390663 102.87635519 94 105 C92.59413192 105.92581556 91.18626624 106.84871323 89.76953125 107.7578125 C83.63153573 112.06660406 79.40333873 118.01565248 75.1328125 124.078125 C72.1832787 128.11887827 68.94928004 131.89678265 65.6875 135.6875 C63.70526546 137.9267712 63.70526546 137.9267712 64 141 C63.04788888 143.02323613 62.05226728 145.02699884 61 147 C62.98 146.67 64.96 146.34 67 146 C65.38070456 149.23859087 62.25333589 149.67660913 59 151 C57.65986503 151.65288627 56.32258472 152.31225595 55 153 C55 153.66 55 154.32 55 155 C49.58823529 159 49.58823529 159 47 159 C48 157 49 155 50 153 C50.66 153 51.32 153 52 153 C52 152.01 52 151.02 52 150 C52.66 150 53.32 150 54 150 C54.2475 149.29875 54.495 148.5975 54.75 147.875 C56.16088026 144.62997541 57.97895398 141.89683263 60 139 C59.34 139 58.68 139 58 139 C57.7525 139.556875 57.505 140.11375 57.25 140.6875 C55.77357483 143.41888657 53.95027344 145.57533573 52 148 C47.99216883 153.49325111 44.24780409 159.02404048 41 165 C40.34 165 39.68 165 39 165 C38.731875 165.71542969 38.46375 166.43085938 38.1875 167.16796875 C36.98268693 170.04128939 35.58762888 172.63337626 34 175.3125 C33.484375 176.19550781 32.96875 177.07851562 32.4375 177.98828125 C31.963125 178.65214844 31.48875 179.31601563 31 180 C30.34 180 29.68 180 29 180 C29 180.66 29 181.32 29 182 C28.34 182 27.68 182 27 182 C26.896875 182.886875 26.79375 183.77375 26.6875 184.6875 C25.98284093 188.0826755 25.0445434 190.21942098 23 193 C22.34 193 21.68 193 21 193 C20.75121094 193.8353125 20.50242187 194.670625 20.24609375 195.53125 C18.8477417 199.42384128 17.05223177 202.88562486 15.0625 206.5 C14.36514876 207.78084921 13.66852444 209.06209447 12.97265625 210.34375 C12.63685547 210.95766602 12.30105469 211.57158203 11.95507812 212.20410156 C11.05962998 213.88787369 10.23218585 215.6073161 9.41015625 217.328125 C7.75792588 220.45866675 5.82279291 221.92004733 3 224 C1.79727181 226.40545638 1.89928528 227.94996953 1.9375 230.625 C1.94652344 231.44226563 1.95554688 232.25953125 1.96484375 233.1015625 C1.97644531 233.72804687 1.98804688 234.35453125 2 235 C3.65 234.67 5.3 234.34 7 234 C7 234.66 7 235.32 7 236 C8.32 235.67 9.64 235.34 11 235 C9 238 9 238 6 239 C5.01 239.99 5.01 239.99 4 241 C3.01 241 2.02 241 1 241 C1.33 241.556875 1.66 242.11375 2 242.6875 C3.36916821 245.85370149 3.46271743 248.50902161 2.4375 251.8125 C1.96863134 254.1568433 2.16480213 255.77012886 2.5 258.125 C3 262 3 262 2 264 C1.90296765 265.8886523 1.86923736 267.78073286 1.8671875 269.671875 C1.86589844 270.81140625 1.86460937 271.9509375 1.86328125 273.125 C1.86714844 274.32125 1.87101563 275.5175 1.875 276.75 C1.87113281 277.93078125 1.86726562 279.1115625 1.86328125 280.328125 C1.86457031 281.4728125 1.86585938 282.6175 1.8671875 283.796875 C1.86831543 284.84198242 1.86944336 285.88708984 1.87060547 286.96386719 C2.00214405 290.05030839 2.47368521 292.9594208 3 296 C2.96595583 298.25215268 2.8608455 300.50427027 2.6875 302.75 C2.60886719 303.87921875 2.53023438 305.0084375 2.44921875 306.171875 C2 309 2 309 0 311 C0 208.37 0 105.74 0 0 Z " fill="#013E6E" transform="translate(1,2)"/>
<path d="M0 0 C0.66 0 1.32 0 2 0 C1.57898387 7.79605726 0.46372095 15.25724966 -1.140625 22.89477539 C-3.8053754 35.61378279 -5.6624565 48.05237572 -6.6875 61 C-6.81760572 62.565167 -6.94846205 64.13027179 -7.08007812 65.6953125 C-7.39669448 69.46284794 -7.6980635 73.23114725 -8 77 C-14.27 77 -20.54 77 -27 77 C-27.25394531 75.0921875 -27.50789063 73.184375 -27.76953125 71.21875 C-30.74978338 47.88885944 -30.74978338 47.88885944 -36 25 C-37.37478457 19.0426002 -38.32512752 13.07385231 -39 7 C-35.56768882 7.82010975 -32.26213218 8.90923188 -28.91796875 10.03515625 C-25.14239243 11.28357305 -21.35483196 12.49107934 -17.5625 13.6875 C-16.8519043 13.91405273 -16.14130859 14.14060547 -15.40917969 14.37402344 C-11.77508892 15.57965464 -11.77508892 15.57965464 -8 16 C-7.67 14.68 -7.34 13.36 -7 12 C-6.34 12 -5.68 12 -5 12 C-4.731875 11.13375 -4.46375 10.2675 -4.1875 9.375 C-3.02888013 6.08208036 -1.61790161 3.08872125 0 0 Z " fill="#003157" transform="translate(98,628)"/>
<path d="M0 0 C0.33 0 0.66 0 1 0 C1.02061493 0.93516449 1.04122986 1.87032898 1.06246948 2.83383179 C1.25772314 11.63371934 1.46317008 20.43331726 1.67867851 29.23273277 C1.78915197 33.75694299 1.89599365 38.28117904 1.99462891 42.80566406 C2.08989501 47.1695411 2.19457871 51.53309856 2.3058815 55.896595 C2.34673848 57.56393126 2.3841631 59.23135518 2.41814804 60.89884567 C2.466216 63.22894829 2.52632413 65.5584446 2.58935547 67.88818359 C2.60086639 68.58229843 2.61237732 69.27641327 2.62423706 69.99156189 C2.65880699 73.9370097 2.65880699 73.9370097 5 77 C5.265625 79.93359375 5.265625 79.93359375 5.25 83.4375 C5.25515625 84.59121094 5.2603125 85.74492188 5.265625 86.93359375 C5 90 5 90 3 93 C3 89.7 3 86.4 3 83 C2.278125 83.2475 1.55625 83.495 0.8125 83.75 C-3.08266483 84.09623687 -4.0543319 82.45472342 -7 80 C-9.31827336 79.1143131 -11.57531134 78.57051498 -14 78 C-16.02352607 80.85674269 -16.04818137 82.78594057 -15.5625 86.125 C-15 90 -15 90 -16 92 C-16.09843033 94.39417312 -16.12973088 96.79130905 -16.125 99.1875 C-16.12757812 100.48042969 -16.13015625 101.77335938 -16.1328125 103.10546875 C-16.07646857 106.98785231 -16.07646857 106.98785231 -15.4296875 110.73828125 C-15.02533518 113.80768292 -15.13909425 115.14156785 -16 118 C-16.2198223 120.24707241 -16.40483987 122.49771238 -16.5625 124.75 C-16.64628906 125.92046875 -16.73007812 127.0909375 -16.81640625 128.296875 C-16.87699219 129.18890625 -16.93757813 130.0809375 -17 131 C-17.33 131 -17.66 131 -18 131 C-18 96.68 -18 62.36 -18 27 C-17.34 27 -16.68 27 -16 27 C-15.8865625 26.41992188 -15.773125 25.83984375 -15.65625 25.2421875 C-14.93778947 22.78744734 -13.9647928 21.21639861 -12.5 19.125 C-10.49518724 16.21289972 -8.53104173 13.28561373 -6.63671875 10.30078125 C-6.23195313 9.66317871 -5.8271875 9.02557617 -5.41015625 8.36865234 C-4.59926765 7.08787582 -3.79064729 5.80566024 -2.984375 4.52197266 C-2.01550998 2.99785411 -1.0111026 1.49643185 0 0 Z " fill="#01325C" transform="translate(19,549)"/>
<path d="M0 0 C2.52069624 5.04139249 2.59584224 9.02078882 1.5 14.5 C1.335 14.995 1.17 15.49 1 16 C1.886875 15.814375 2.77375 15.62875 3.6875 15.4375 C9.44094964 14.58161493 15.24757059 15.43773246 21 16 C21 16.33 21 16.66 21 17 C15.06 17.33 9.12 17.66 3 18 C3 18.99 3 19.98 3 21 C2.84109696 22.81319714 2.67324776 24.62561721 2.5 26.4375 C1.07681206 36.9572709 1.07681206 36.9572709 3 47 C3.12375 48.155 3.2475 49.31 3.375 50.5 C3.8526367 54.73709971 5.01784702 58.60092618 6.30078125 62.65625 C7.12243347 65.41039152 7.6252875 68.15218497 8 71 C8.66 71 9.32 71 10 71 C10.25394531 72.00160156 10.50789062 73.00320313 10.76953125 74.03515625 C11.11689735 75.37767927 11.46457005 76.72012299 11.8125 78.0625 C11.97814453 78.71927734 12.14378906 79.37605469 12.31445312 80.05273438 C13.5004697 84.59540163 15.08520382 88.71329449 17 93 C17.60857856 94.55284132 18.19638762 96.114224 18.75 97.6875 C19.01296875 98.41324219 19.2759375 99.13898438 19.546875 99.88671875 C20.05923533 102.27626134 19.76675174 103.70492553 19 106 C17.82786955 104.21190303 16.66244474 102.41940875 15.5 100.625 C14.8503125 99.62726563 14.200625 98.62953125 13.53125 97.6015625 C12 95 12 95 12 93 C11.34 93 10.68 93 10 93 C7 87.25 7 87.25 7 85 C6.34 85 5.68 85 5 85 C4.67 83.68 4.34 82.36 4 81 C3.34 81 2.68 81 2 81 C2 80.01 2 79.02 2 78 C1.34 78 0.68 78 0 78 C0 52.26 0 26.52 0 0 Z " fill="#013159" transform="translate(1,403)"/>
<path d="M0 0 C-0.49730652 4.97306516 -1.55302334 8.63799813 -4 13 C-3.34 13 -2.68 13 -2 13 C-1.731875 12.113125 -1.46375 11.22625 -1.1875 10.3125 C-0.08289181 7.23122452 1.22849144 4.73778595 3 2 C3.66 2.33 4.32 2.66 5 3 C5 3.66 5 4.32 5 5 C6.32 4.34 7.64 3.68 9 3 C8.67 3.99 8.34 4.98 8 6 C8.99 6.33 9.98 6.66 11 7 C10.505 7.45375 10.01 7.9075 9.5 8.375 C7.77390663 9.87635519 7.77390663 9.87635519 8 12 C6.60794237 12.91672088 5.21251338 13.82872072 3.80078125 14.71484375 C0.49947253 17.07087535 -2.21544991 20.06716026 -5 23 C-5.33 22.34 -5.66 21.68 -6 21 C-8.57939515 23.50774529 -10.9764106 25.96967077 -13.1875 28.8125 C-13.785625 29.534375 -14.38375 30.25625 -15 31 C-15.66 31 -16.32 31 -17 31 C-17.26039062 31.55171875 -17.52078125 32.1034375 -17.7890625 32.671875 C-19.16678242 35.32065266 -20.71374053 37.76899241 -22.375 40.25 C-22.96023437 41.14203125 -23.54546875 42.0340625 -24.1484375 42.953125 C-25.06496094 43.96632813 -25.06496094 43.96632813 -26 45 C-27.32 45 -28.64 45 -30 45 C-29.33989524 42.15449988 -28.48275034 39.47674001 -27.4375 36.75 C-27.16808594 36.04359375 -26.89867187 35.3371875 -26.62109375 34.609375 C-26.41613281 34.07828125 -26.21117187 33.5471875 -26 33 C-25.34 33.99 -24.68 34.98 -24 36 C-23.44570313 35.2059375 -22.89140625 34.411875 -22.3203125 33.59375 C-21.59585938 32.5728125 -20.87140625 31.551875 -20.125 30.5 C-19.04605469 28.96859375 -19.04605469 28.96859375 -17.9453125 27.40625 C-17.30335937 26.6121875 -16.66140625 25.818125 -16 25 C-15.34 25 -14.68 25 -14 25 C-13.67 23.35 -13.34 21.7 -13 20 C-12.21625 19.938125 -11.4325 19.87625 -10.625 19.8125 C-9.75875 19.544375 -8.8925 19.27625 -8 19 C-5.71552564 14.57284625 -5.60822199 10.31190127 -5.34375 5.42578125 C-5 3 -5 3 -3 1 C-1 0 -1 0 0 0 Z " fill="#003460" transform="translate(87,95)"/>
<path d="M0 0 C4.04356581 1.34785527 5.41250936 4.0449701 7.6875 7.4375 C8.10322266 8.03626953 8.51894531 8.63503906 8.94726562 9.25195312 C12 13.72829433 12 13.72829433 12 16 C12.66 16 13.32 16 14 16 C14.556875 17.134375 15.11375 18.26875 15.6875 19.4375 C17.4222876 22.55468831 17.4222876 22.55468831 20.75 23.9375 C21.4925 23.958125 22.235 23.97875 23 24 C23 24.33 23 24.66 23 25 C15.41 25 7.82 25 0 25 C0 16.75 0 8.5 0 0 Z " fill="#034272" transform="translate(1,680)"/>
<path d="M0 0 C0.33 0.66 0.66 1.32 1 2 C2.65308043 2.39523913 4.32390339 2.71788473 6 3 C7.73558687 3.45536387 9.46508976 3.93458748 11.1875 4.4375 C12.47720703 4.80681641 12.47720703 4.80681641 13.79296875 5.18359375 C16 6 16 6 18 8 C18 13.34126469 14.19646083 17.0676633 11 21 C10.51402344 21.60972656 10.02804688 22.21945312 9.52734375 22.84765625 C8.38350334 24.25828159 7.19591303 25.63324225 6 27 C5.67 27 5.34 27 5 27 C4.70996094 25.38931641 4.70996094 25.38931641 4.4140625 23.74609375 C4.15122282 22.30986267 3.88819176 20.8736666 3.625 19.4375 C3.43550781 18.38079102 3.43550781 18.38079102 3.2421875 17.30273438 C2.60853297 13.86515856 1.87930884 10.58614061 0.8984375 7.22265625 C0 4 0 4 0 0 Z " fill="#023760" transform="translate(62,649)"/>
<path d="M0 0 C0.33 0 0.66 0 1 0 C1 14.85 1 29.7 1 45 C5.29 45.66 9.58 46.32 14 47 C16.34812002 47.61255305 18.69251716 48.24872652 21 49 C21 50.65 21 52.3 21 54 C18.8125 54.75 18.8125 54.75 16 55 C14.30327614 53.70513179 12.6396721 52.36639342 11 51 C8.68172664 50.1143131 6.42468866 49.57051498 4 49 C1.97647393 51.85674269 1.95181863 53.78594057 2.4375 57.125 C3 61 3 61 2 63 C1.90156967 65.39417312 1.87026912 67.79130905 1.875 70.1875 C1.87242187 71.48042969 1.86984375 72.77335938 1.8671875 74.10546875 C1.92353143 77.98785231 1.92353143 77.98785231 2.5703125 81.73828125 C2.97466482 84.80768292 2.86090575 86.14156785 2 89 C1.7801777 91.24707241 1.59516013 93.49771238 1.4375 95.75 C1.35371094 96.92046875 1.26992188 98.0909375 1.18359375 99.296875 C1.12300781 100.18890625 1.06242188 101.0809375 1 102 C0.67 102 0.34 102 0 102 C0 68.34 0 34.68 0 0 Z " fill="#01284B" transform="translate(1,578)"/>
<path d="M0 0 C5.71671813 5.71671813 4.27549042 19.02523306 4.32861328 26.61108398 C4.32471614 27.96989435 4.31932134 29.32870117 4.3125 30.6875 C4.31167419 31.38400665 4.31084839 32.08051331 4.30999756 32.79812622 C4.28052531 43.61397692 4.0591124 54.54569388 1 65 C0.01 65.495 0.01 65.495 -1 66 C-0.67 44.22 -0.34 22.44 0 0 Z " fill="#044B81" transform="translate(2,158)"/>
<path d="M0 0 C1.60372657 4.00931642 0.38691773 7.05823382 -1 11 C-1.66 11.66 -2.32 12.32 -3 13 C-3.26209706 15.14371515 -3.26209706 15.14371515 -3.16015625 17.65234375 C-3.14839355 18.63871826 -3.13663086 19.62509277 -3.12451172 20.64135742 C-3.10404785 21.72908447 -3.08358398 22.81681152 -3.0625 23.9375 C-2.87481067 44.98998608 -3.15294143 66.13810225 -4.9375 87.125 C-5.04940674 88.45470825 -5.04940674 88.45470825 -5.16357422 89.8112793 C-5.95357082 98.11270577 -7.94196835 106.0337947 -10.125 114.0625 C-10.30675781 114.73732422 -10.48851562 115.41214844 -10.67578125 116.10742188 C-11.11543145 117.73875552 -11.5574528 119.36944986 -12 121 C-14.10337001 117.53562586 -14.10337001 117.53562586 -13.63305664 115.09863281 C-13.03590322 113.119022 -12.4369073 111.14183008 -11.80859375 109.171875 C-11.58623047 108.45386719 -11.36386719 107.73585938 -11.13476562 106.99609375 C-10.67399603 105.51182196 -10.20537424 104.02996252 -9.72851562 102.55078125 C-8.18179756 97.49125453 -7.87184648 93.28215377 -8 88 C-7.84804672 87.3922171 -7.69609344 86.7844342 -7.53953552 86.15823364 C-4.96368814 75.85440703 -5.8079392 64.34094266 -5.68359375 53.7578125 C-5.66295367 52.25324018 -5.64195576 50.74867273 -5.62062073 49.24411011 C-5.56612655 45.33494074 -5.5164054 41.4257256 -5.46777344 37.51647949 C-5.41701845 33.50703997 -5.36161792 29.49766471 -5.30664062 25.48828125 C-5.19995156 17.658909 -5.09831882 9.82948232 -5 2 C-4.01 3.485 -4.01 3.485 -3 5 C-2.34 5 -1.68 5 -1 5 C-0.67 3.35 -0.34 1.7 0 0 Z " fill="#053963" transform="translate(149,523)"/>
<path d="M0 0 C10.23 0 20.46 0 31 0 C31 0.33 31 0.66 31 1 C22.585 1.495 22.585 1.495 14 2 C14 2.66 14 3.32 14 4 C11.69 3.67 9.38 3.34 7 3 C7 2.34 7 1.68 7 1 C5.68 1 4.36 1 3 1 C3.20625 1.78375 3.4125 2.5675 3.625 3.375 C3.810625 4.674375 3.810625 4.674375 4 6 C3.34 6.66 2.68 7.32 2 8 C2.30340511 10.00475845 2.64501691 12.00372895 3 14 C3.08779046 17.18808341 2.97841904 20.36757218 2.87890625 23.5546875 C2.85529526 24.45623566 2.83168427 25.35778381 2.80735779 26.28665161 C2.73114276 29.14961163 2.64693845 32.01227189 2.5625 34.875 C2.50923705 36.82290229 2.45649698 38.77081894 2.40429688 40.71875 C2.27558506 45.47935438 2.13971047 50.23970622 2 55 C1.34 54.67 0.68 54.34 0 54 C0 36.18 0 18.36 0 0 Z " fill="#064676" transform="translate(1,2)"/>
<path d="M0 0 C0.66 0 1.32 0 2 0 C1.690625 0.8971875 1.690625 0.8971875 1.375 1.8125 C0.69328085 4.28450846 0.69328085 4.28450846 3 7 C2.01 7.66 1.02 8.32 0 9 C0 8.34 0 7.68 0 7 C-2.57939515 9.50774529 -4.9764106 11.96967077 -7.1875 14.8125 C-7.785625 15.534375 -8.38375 16.25625 -9 17 C-9.66 17 -10.32 17 -11 17 C-11.26039062 17.55171875 -11.52078125 18.1034375 -11.7890625 18.671875 C-13.16678242 21.32065266 -14.71374053 23.76899241 -16.375 26.25 C-16.96023437 27.14203125 -17.54546875 28.0340625 -18.1484375 28.953125 C-19.06496094 29.96632812 -19.06496094 29.96632812 -20 31 C-21.32 31 -22.64 31 -24 31 C-23.33989524 28.15449988 -22.48275034 25.47674001 -21.4375 22.75 C-21.16808594 22.04359375 -20.89867187 21.3371875 -20.62109375 20.609375 C-20.41613281 20.07828125 -20.21117187 19.5471875 -20 19 C-19.34 19.99 -18.68 20.98 -18 22 C-17.44570313 21.2059375 -16.89140625 20.411875 -16.3203125 19.59375 C-15.59585938 18.5728125 -14.87140625 17.551875 -14.125 16.5 C-13.40570313 15.4790625 -12.68640625 14.458125 -11.9453125 13.40625 C-11.30335937 12.6121875 -10.66140625 11.818125 -10 11 C-9.34 11 -8.68 11 -8 11 C-7.67 9.35 -7.34 7.7 -7 6 C-6.21625 5.938125 -5.4325 5.87625 -4.625 5.8125 C-3.75875 5.544375 -2.8925 5.27625 -2 5 C-0.62533375 2.52363988 -0.62533375 2.52363988 0 0 Z " fill="#01325D" transform="translate(81,109)"/>
<path d="M0 0 C0.66 0.33 1.32 0.66 2 1 C1.28714844 1.556875 0.57429688 2.11375 -0.16015625 2.6875 C-11.67848249 11.4496234 -11.67848249 11.4496234 -18 24 C-15.41408825 26.69365808 -14.10402555 26.99647371 -10.3125 27.125 C-5.61424292 26.36098436 -2.61076228 23.73481139 0.921875 20.69140625 C2.88070656 19.0970941 4.70441181 18.02887849 7 17 C2.90264719 23.96722862 -2.10890438 27.8980051 -10 30 C-14.41805855 29.56013473 -16.81014215 28.10125069 -20 25 C-21.45620562 22.08758876 -20.98382014 20.94390983 -20.0625 17.75 C-19.711875 16.8425 -19.36125 15.935 -19 15 C-18.34 15 -17.68 15 -17 15 C-17 14.34 -17 13.68 -17 13 C-16.34 13 -15.68 13 -15 13 C-14.7525 12.4225 -14.505 11.845 -14.25 11.25 C-11.14862991 5.66753384 -5.77877987 2.44315211 0 0 Z " fill="#042C52" transform="translate(447,640)"/>
<path d="M0 0 C1.65 0 3.3 0 5 0 C1.24532309 3.05936637 -2.08113061 5 -7 5 C-7.33 5.66 -7.66 6.32 -8 7 C-10.2968907 7.44427848 -12.6149246 7.7819046 -14.9375 8.0625 C-19.62436326 8.50104656 -19.62436326 8.50104656 -24 10 C-25.48100811 10.08963847 -26.96599424 10.11757925 -28.44970703 10.11352539 C-29.37051056 10.11344986 -30.29131409 10.11337433 -31.24002075 10.11329651 C-32.73382767 10.10555458 -32.73382767 10.10555458 -34.2578125 10.09765625 C-35.27600067 10.0962413 -36.29418884 10.09482635 -37.3432312 10.09336853 C-40.60385035 10.087759 -43.86440151 10.07520488 -47.125 10.0625 C-49.33203026 10.05748623 -51.53906159 10.05292311 -53.74609375 10.04882812 C-59.16408581 10.03778648 -64.58203805 10.02103905 -70 10 C-70 9.67 -70 9.34 -70 9 C-63.17634471 8.30799795 -56.3776296 7.90358549 -49.5234375 7.75390625 C-48.78095764 7.73725922 -48.03847778 7.72061218 -47.27349854 7.70346069 C-44.19870041 7.63719668 -41.12390337 7.57515464 -38.04882812 7.52319336 C-24.1267204 8.32076193 -24.1267204 8.32076193 -12 4 C-9.98688551 3.60430892 -7.96402792 3.25747809 -5.9375 2.9375 C-4.83277344 2.76089844 -3.72804688 2.58429688 -2.58984375 2.40234375 C-1.30787109 2.20318359 -1.30787109 2.20318359 0 2 C0 1.34 0 0.68 0 0 Z " fill="#033762" transform="translate(167,152)"/>
<path d="M0 0 C1.32 0.33 2.64 0.66 4 1 C-1.48519371 5.9172445 -7.1397568 10.53699071 -13 15 C-12.505 15.99 -12.505 15.99 -12 17 C-29.16 17 -46.32 17 -64 17 C-64 16.67 -64 16.34 -64 16 C-63.44147339 16.00079559 -62.88294678 16.00159119 -62.30749512 16.00241089 C-56.46648477 16.00485861 -50.62679466 15.96546708 -44.78613281 15.90234375 C-42.60976299 15.88423428 -40.43327864 15.87660602 -38.25683594 15.87988281 C-35.11824815 15.88275435 -31.9820109 15.84728847 -28.84375 15.8046875 C-27.87884644 15.81378143 -26.91394287 15.82287537 -25.9197998 15.83224487 C-19.68157554 15.69961401 -16.26210603 14.43917218 -11.56408691 10.28421021 C-10 9 -10 9 -8 9 C-7.67 8.01 -7.34 7.02 -7 6 C-4.78298853 4.41034429 -2.42137527 3.27672514 0 2 C0 1.34 0 0.68 0 0 Z " fill="#012D52" transform="translate(324,688)"/>
<path d="M0 0 C0.66 0.33 1.32 0.66 2 1 C0.68 3.31 -0.64 5.62 -2 8 C-0.02 7.67 1.96 7.34 4 7 C2.38070456 10.23859087 -0.74666411 10.67660913 -4 12 C-5.34013497 12.65288627 -6.67741528 13.31225595 -8 14 C-8 14.66 -8 15.32 -8 16 C-13.41176471 20 -13.41176471 20 -16 20 C-14.5 17 -14.5 17 -13 14 C-12.34 14 -11.68 14 -11 14 C-11 13.01 -11 12.02 -11 11 C-10.34 11 -9.68 11 -9 11 C-8.773125 10.278125 -8.54625 9.55625 -8.3125 8.8125 C-6.49605306 4.9201137 -3.87725027 1.93862514 0 0 Z " fill="#012850" transform="translate(64,141)"/>
<path d="M0 0 C0.33 0.66 0.66 1.32 1 2 C-0.328125 4.42578125 -0.328125 4.42578125 -2.25 7.3125 C-6.43228752 13.64641891 -10.67280202 20.10318758 -13.9375 26.97265625 C-15.0793587 29.15142341 -16.41476654 30.94542936 -17.9375 32.875 C-19.74975124 35.24184379 -21.15923866 37.31847732 -22.5 40 C-24.52232442 44.04464884 -27.21693813 47.45137095 -30 51 C-30.33 50.34 -30.66 49.68 -31 49 C-30.22265625 47.2734375 -30.22265625 47.2734375 -29.0625 45.375 C-28.381875 44.26125 -27.70125 43.1475 -27 42 C-26.34 42 -25.68 42 -25 42 C-24.88269531 41.41992188 -24.76539063 40.83984375 -24.64453125 40.2421875 C-23.96062378 37.8630185 -23.03117448 36.19667148 -21.6875 34.125 C-21.23632812 33.42246094 -20.78515625 32.71992188 -20.3203125 31.99609375 C-19.25220538 30.38129274 -18.16085262 28.78188284 -17.0625 27.1875 C-14.63228712 23.43171646 -12.55269751 19.54012208 -10.46484375 15.5859375 C-9.12342565 13.21788741 -7.64928607 11.15744448 -6 9 C-5.29105249 7.80412412 -4.60189261 6.59619128 -3.9375 5.375 C-2 2 -2 2 0 0 Z " fill="#023865" transform="translate(175,302)"/>
<path d="M0 0 C1.35917066 3.75824371 0.60901333 6.42419112 -0.3125 10.25 C-2.09972866 18.21886546 -2.72211473 26.20959515 -3.26489258 34.34667969 C-3.71179498 40.70099111 -4.58538116 46.78745847 -6 53 C-3.64214682 52.10664203 -3.64214682 52.10664203 -2.875 48.9375 C-2.441875 47.4834375 -2.441875 47.4834375 -2 46 C-1.25 47.5625 -1.25 47.5625 -1 50 C-2.36068323 53.22897886 -3.76639367 56.38319684 -7 58 C-7.20631862 49.20968067 -6.59891628 40.5574879 -5.75 31.8125 C-5.68541595 31.13178436 -5.62083191 30.45106873 -5.55429077 29.74972534 C-4.57120917 19.55642141 -3.12154308 9.77660955 0 0 Z " fill="#02345D" transform="translate(135,644)"/>
<path d="M0 0 C2.52938418 4.47584415 2.43917781 8.4593613 2.5 13.5 C2.54125 14.35464844 2.5825 15.20929687 2.625 16.08984375 C2.65551393 18.53477229 2.59210142 20.62650218 2 23 C-0.73175986 25.5814938 -2.44923041 26.88593289 -6.23046875 27.1640625 C-10.02782187 26.11808499 -11.57976979 25.61633764 -13.875 22.25 C-14.24625 21.1775 -14.6175 20.105 -15 19 C-15.391875 18.071875 -15.78375 17.14375 -16.1875 16.1875 C-17.23705737 12.07000571 -17.16894771 8.22369287 -17 4 C-16.67 4 -16.34 4 -16 4 C-15.855625 5.134375 -15.71125 6.26875 -15.5625 7.4375 C-15.38828522 10.80777201 -15.38828522 10.80777201 -14 12 C-13.95936168 13.66617115 -13.957279 15.33388095 -14 17 C-13.01 17.33 -12.02 17.66 -11 18 C-11 19.66666667 -11 21.33333333 -11 23 C-8.36 23.33 -5.72 23.66 -3 24 C0.72943753 19.27213037 0.35415147 14.9177468 0.1875 9.1875 C0.17396484 8.30384766 0.16042969 7.42019531 0.14648438 6.50976562 C0.11129217 4.33957977 0.05748985 2.16970967 0 0 Z " fill="#02335C" transform="translate(339,591)"/>
<path d="M0 0 C1.32 0.66 2.64 1.32 4 2 C3.484375 2.66 2.96875 3.32 2.4375 4 C0.45186938 8.14392478 1.26361576 10.50805611 2 15 C1.67 15.66 1.34 16.32 1 17 C0.90156967 19.39417312 0.87026912 21.79130905 0.875 24.1875 C0.87242187 25.48042969 0.86984375 26.77335938 0.8671875 28.10546875 C0.92353143 31.98785231 0.92353143 31.98785231 1.5703125 35.73828125 C1.97466482 38.80768292 1.86090575 40.14156785 1 43 C0.7801777 45.24707241 0.59516013 47.49771238 0.4375 49.75 C0.35371094 50.92046875 0.26992188 52.0909375 0.18359375 53.296875 C0.12300781 54.18890625 0.06242188 55.0809375 0 56 C-0.33 56 -0.66 56 -1 56 C-1.02533904 48.66765073 -1.04286227 41.33531273 -1.05493164 34.00292969 C-1.05996278 31.50813373 -1.06678834 29.01334072 -1.07543945 26.51855469 C-1.08755827 22.93423738 -1.0932405 19.34995904 -1.09765625 15.765625 C-1.10281754 14.64883362 -1.10797882 13.53204224 -1.11329651 12.38140869 C-1.11337204 11.34063171 -1.11344757 10.29985474 -1.11352539 9.22753906 C-1.115746 8.31264709 -1.11796661 7.39775513 -1.12025452 6.45513916 C-1.00776758 4.15858431 -0.64780585 2.1991267 0 0 Z " fill="#022F54" transform="translate(2,624)"/>
<path d="M0 0 C0.33 0 0.66 0 1 0 C1.89266031 7.38038791 2.0882518 14.65014526 1.96289062 22.07202148 C1.91707378 25.87526025 2.20971888 29.28850117 3 33 C2.505 33.495 2.505 33.495 2 34 C1.84235595 35.77869726 1.74899323 37.56318476 1.68359375 39.34765625 C1.64169922 40.42724609 1.59980469 41.50683594 1.55664062 42.61914062 C1.51732422 43.75544922 1.47800781 44.89175781 1.4375 46.0625 C1.39431641 47.20267578 1.35113281 48.34285156 1.30664062 49.51757812 C1.20017161 52.34492195 1.09815793 55.17235738 1 58 C0.67 58 0.34 58 0 58 C0 38.86 0 19.72 0 0 Z " fill="#022E52" transform="translate(1,327)"/>
<path d="M0 0 C2.87659482 1.38218314 4.8746993 2.59748617 7 5 C7.556875 5.5775 8.11375 6.155 8.6875 6.75 C10.58735612 10.00689621 10.46266006 12.2987195 10 16 C8.34638911 18.61821724 7.10777206 19.71170686 4.09375 20.49609375 C0.64785184 21.01683582 -2.76760264 21.50075592 -6 20 C-8.25 17.9375 -8.25 17.9375 -10 16 C-9.67 15.34 -9.34 14.68 -9 14 C-8.34 14.495 -7.68 14.99 -7 15.5 C-2.92599581 17.5370021 -0.53276656 17.43865483 4 17 C6.19411252 16.05791909 6.19411252 16.05791909 7 14 C7.13762669 8.08205251 3.59225694 4.32828512 0 0 Z " fill="#04335C" transform="translate(282,624)"/>
<path d="M0 0 C0.886875 0.103125 1.77375 0.20625 2.6875 0.3125 C-3.69641725 7.57695756 -12.59322185 12.34919175 -21.3125 16.3125 C-21.9725 16.3125 -22.6325 16.3125 -23.3125 16.3125 C-22.9825 14.9925 -22.6525 13.6725 -22.3125 12.3125 C-20.6728125 11.94125 -20.6728125 11.94125 -19 11.5625 C-15.07662967 10.23254396 -14.51313689 9.56105921 -12.3125 6.3125 C-11.69375 6.168125 -11.075 6.02375 -10.4375 5.875 C-7.99862026 5.43219433 -7.99862026 5.43219433 -5.9375 2.75 C-3.3125 0.3125 -3.3125 0.3125 0 0 Z " fill="#033660" transform="translate(125.3125,307.6875)"/>
<path d="M0 0 C0.66 0.33 1.32 0.66 2 1 C1.67 1.66 1.34 2.32 1 3 C1.99 3.33 2.98 3.66 4 4 C3.505 4.45375 3.01 4.9075 2.5 5.375 C0.77390663 6.87635519 0.77390663 6.87635519 1 9 C-0.97133986 10.37535339 -2.97681922 11.70211044 -5 13 C-6.68083079 14.31543279 -8.3524116 15.64316249 -10 17 C-10.99 16.34 -11.98 15.68 -13 15 C-12.01 14.67 -11.02 14.34 -10 14 C-9.29605388 12.68596724 -8.63654342 11.3479743 -8 10 C-6 7.25 -6 7.25 -4 5 C-3.34 5 -2.68 5 -2 5 C-1.855625 4.360625 -1.71125 3.72125 -1.5625 3.0625 C-1 1 -1 1 0 0 Z " fill="#093F6D" transform="translate(94,98)"/>
<path d="M0 0 C0 0.99 0 1.98 0 3 C-0.99 3 -1.98 3 -3 3 C-2.01 2.01 -1.02 1.02 0 0 Z M-3 4 C-3 7.46924732 -3.37491821 7.75856556 -5.625 10.1875 C-7.34733744 12.06020023 -8.86865565 13.75614268 -10.07958984 16.00439453 C-11.53376304 18.47698228 -12.77204385 20.17705464 -15 22 C-19.49228427 22.99290076 -23.80239738 22.75761141 -28.375 22.5 C-29.58800781 22.46390625 -30.80101562 22.4278125 -32.05078125 22.390625 C-35.03710076 22.29656769 -38.01691402 22.16526792 -41 22 C-41 21.67 -41 21.34 -41 21 C-28.625 20.505 -28.625 20.505 -16 20 C-15.34 18.68 -14.68 17.36 -14 16 C-12.15896486 13.86594726 -10.30575409 11.79836347 -8.375 9.75 C-7.859375 9.19570313 -7.34375 8.64140625 -6.8125 8.0703125 C-5.54574965 6.7097288 -4.27342185 5.35434163 -3 4 Z " fill="#022F54" transform="translate(219,683)"/>
<path d="M0 0 C1.60372657 4.00931642 0.38691773 7.05823382 -1 11 C-1.66 11.66 -2.32 12.32 -3 13 C-3.27844932 15.71934335 -3.27844932 15.71934335 -3.1953125 18.8828125 C-3.18886719 20.04941406 -3.18242187 21.21601562 -3.17578125 22.41796875 C-3.15902344 23.64128906 -3.14226562 24.86460937 -3.125 26.125 C-3.11597656 27.35605469 -3.10695312 28.58710937 -3.09765625 29.85546875 C-3.07402548 32.90383815 -3.04108054 35.95182382 -3 39 C-3.33 39 -3.66 39 -4 39 C-5.07650471 26.65864238 -5.11028714 14.38100347 -5 2 C-4.01 3.485 -4.01 3.485 -3 5 C-2.34 5 -1.68 5 -1 5 C-0.67 3.35 -0.34 1.7 0 0 Z " fill="#05325A" transform="translate(149,523)"/>
<path d="M0 0 C0.66 0.33 1.32 0.66 2 1 C-6.72932376 11.34800632 -15.98543673 20.16489829 -27 28 C-27.33 26.68 -27.66 25.36 -28 24 C-27.31035156 23.77957031 -26.62070313 23.55914062 -25.91015625 23.33203125 C-22.21144373 21.6390635 -19.49428491 19.33624458 -16.4375 16.6875 C-15.87353516 16.21376953 -15.30957031 15.74003906 -14.72851562 15.25195312 C-12.09540481 13.00072037 -9.89504432 10.86840034 -7.72265625 8.14453125 C-7.15417969 7.43683594 -6.58570313 6.72914063 -6 6 C-5.34 6 -4.68 6 -4 6 C-4 5.34 -4 4.68 -4 4 C-3.34 4 -2.68 4 -2 4 C-1.34 2.68 -0.68 1.36 0 0 Z " fill="#013A68" transform="translate(156,280)"/>
<path d="M0 0 C3.97915159 -0.02886984 7.95827653 -0.04675406 11.9375 -0.0625 C13.07380859 -0.07087891 14.21011719 -0.07925781 15.38085938 -0.08789062 C16.46044922 -0.09111328 17.54003906 -0.09433594 18.65234375 -0.09765625 C20.15269165 -0.10551147 20.15269165 -0.10551147 21.68334961 -0.11352539 C24 0 24 0 25 1 C27.54606836 1.21365609 30.07426639 1.37723742 32.625 1.5 C37.81009514 1.75782241 42.8692534 2.19200841 48 3 C48 3.33 48 3.66 48 4 C36.89351309 4.20180023 26.04520155 3.63655734 15 2.5 C13.53132025 2.35475667 12.06257016 2.21022279 10.59375 2.06640625 C7.06165668 1.71905729 3.53059399 1.36230986 0 1 C0 0.67 0 0.34 0 0 Z " fill="#012F54" transform="translate(80,482)"/>
<path d="M0 0 C0.66 0 1.32 0 2 0 C0.66932878 4.73127546 -2.19143943 7.69672104 -5.44140625 11.23046875 C-7.07056716 12.92814506 -7.07056716 12.92814506 -8 15 C-8.66 15 -9.32 15 -10 15 C-10.226875 15.7425 -10.45375 16.485 -10.6875 17.25 C-12.24407532 20.51139591 -14.08518854 21.92894975 -17 24 C-15.62091009 18.48364034 -12.8578521 14.13041773 -9 10 C-8.34 10 -7.68 10 -7 10 C-6.773125 9.46375 -6.54625 8.9275 -6.3125 8.375 C-4.54429911 5.17539839 -2.46329797 2.70962777 0 0 Z " fill="#0D4574" transform="translate(79,116)"/>
<path d="M0 0 C0.33 0.66 0.66 1.32 1 2 C-0.55947733 4.21052126 -2.12246817 6.41841611 -3.6875 8.625 C-4.12255859 9.24246094 -4.55761719 9.85992188 -5.00585938 10.49609375 C-7.84191026 14.48757278 -10.82029672 18.27602318 -14 22 C-14.33 21.34 -14.66 20.68 -15 20 C-13.35205833 15.32914691 -10.89378307 11.11502645 -7 8 C-6.34 8 -5.68 8 -5 8 C-4.731875 7.236875 -4.46375 6.47375 -4.1875 5.6875 C-3.05575888 3.12619116 -2.08776599 1.80307062 0 0 Z " fill="#032645" transform="translate(236,660)"/>
<path d="M0 0 C2.64 0 5.28 0 8 0 C1.41937559 4.38708294 -8.14319955 6.54244923 -16 7 C-16.99 6.34 -17.98 5.68 -19 5 C-15.77954594 2.85303063 -14.38891038 2.65342625 -10.625 2.375 C-9.68914063 2.30023438 -8.75328125 2.22546875 -7.7890625 2.1484375 C-5.18578866 2.00988791 -2.60628407 1.97156781 0 2 C0 1.34 0 0.68 0 0 Z " fill="#04345C" transform="translate(64,336)"/>
<path d="M0 0 C0.33 1.32 0.66 2.64 1 4 C0.31164062 4.54527344 0.31164062 4.54527344 -0.390625 5.1015625 C-4.43158037 8.4124293 -7.10863442 11.6131005 -10 16 C-12.25 17.375 -12.25 17.375 -14 18 C-11.68957307 11.77961979 -9.75730679 8.3701308 -4 5 C-1.72462308 2.42816686 -1.72462308 2.42816686 0 0 Z " fill="#022B54" transform="translate(111,70)"/>
<path d="M0 0 C1.17520139 3.52560416 0.84015172 3.93844218 -0.625 7.1875 C-2.63799991 11.92438441 -4.23916256 16.71124325 -5.75 21.625 C-5.97252441 22.34840576 -6.19504883 23.07181152 -6.42431641 23.81713867 C-6.9526953 25.543798 -7.47681103 27.27176101 -8 29 C-8.33 29 -8.66 29 -9 29 C-9.35262585 24.29832196 -8.40275966 21.13588695 -6.65625 16.8828125 C-5.85257789 14.90935601 -5.85257789 14.90935601 -6 12.3125 C-6 9.14861097 -4.75195276 7.59548556 -3 5 C-2.443125 4.071875 -1.88625 3.14375 -1.3125 2.1875 C-0.879375 1.465625 -0.44625 0.74375 0 0 Z " fill="#013662" transform="translate(143,661)"/>
<path d="M0 0 C2 2 2 2 2.16015625 5.1875 C2.12792969 6.445625 2.09570312 7.70375 2.0625 9 C1.74750315 13.66444067 1.74750315 13.66444067 3 18 C3.22622081 19.70363822 3.40888473 21.41328701 3.5625 23.125 C3.64628906 24.03507812 3.73007813 24.94515625 3.81640625 25.8828125 C3.87699219 26.58148438 3.93757812 27.28015625 4 28 C3.67 28 3.34 28 3 28 C2.67 29.65 2.34 31.3 2 33 C1.67 33 1.34 33 1 33 C-0.12520495 21.98906587 -0.09920291 11.05561292 0 0 Z " fill="#043862" transform="translate(1,432)"/>
<path d="M0 0 C0.33 0 0.66 0 1 0 C1.22615016 6.16259181 0.44149898 11.51972719 -1 17.5 C-1.19078125 18.32242188 -1.3815625 19.14484375 -1.578125 19.9921875 C-2.04427304 21.99662407 -2.52102976 23.99858863 -3 26 C-3.33 26 -3.66 26 -4 26 C-4.10259391 21.17808623 -3.77725104 16.59972978 -3.12109375 11.8203125 C-3.08113281 11.21960938 -3.04117188 10.61890625 -3 10 C-3.33 9.67 -3.66 9.34 -4 9 C-4.04063832 7.33382885 -4.042721 5.66611905 -4 4 C-3.01 4.495 -3.01 4.495 -2 5 C-2 5.66 -2 6.32 -2 7 C-1.34 7 -0.68 7 0 7 C0 4.69 0 2.38 0 0 Z " fill="#08497A" transform="translate(69,88)"/>
<path d="M0 0 C0.66 0.33 1.32 0.66 2 1 C-4.27 7.27 -10.54 13.54 -17 20 C-17 16.47967572 -16.29648649 15.5614657 -14 13 C-13.34 13 -12.68 13 -12 13 C-11.77570313 12.43796875 -11.55140625 11.8759375 -11.3203125 11.296875 C-9.61328077 8.32724583 -7.45193456 6.49655833 -4.875 4.25 C-3.96492188 3.45078125 -3.05484375 2.6515625 -2.1171875 1.828125 C-1.41851562 1.22484375 -0.71984375 0.6215625 0 0 Z " fill="#022F56" transform="translate(130,50)"/>
<path d="M0 0 C1.36364637 4.35456143 0.1624283 7.55583899 -1.25 11.75 C-1.48162842 12.46285156 -1.71325684 13.17570313 -1.9519043 13.91015625 C-3.50784379 18.65661231 -5.16137459 23.35505159 -7 28 C-8.52952553 23.24147613 -6.98447247 19.81050373 -5.37109375 15.234375 C-4.90219727 13.90019531 -4.90219727 13.90019531 -4.42382812 12.5390625 C-3.9355957 11.15847656 -3.9355957 11.15847656 -3.4375 9.75 C-3.10814453 8.81414063 -2.77878906 7.87828125 -2.43945312 6.9140625 C-1.62790792 4.60880365 -0.81470236 2.30414457 0 0 Z " fill="#02355E" transform="translate(208,572)"/>
<path d="M0 0 C1.875 0.3125 1.875 0.3125 4 1 C6.23551759 4.35327639 6.17283528 4.90743657 5.625 8.6875 C5.51414062 9.49574219 5.40328125 10.30398438 5.2890625 11.13671875 C5.19367188 11.75160156 5.09828125 12.36648438 5 13 C4.34 13 3.68 13 3 13 C2.49242138 11.58603098 1.99425075 10.16868271 1.5 8.75 C1.08234375 7.56664062 1.08234375 7.56664062 0.65625 6.359375 C0 4 0 4 0 0 Z " fill="#01213F" transform="translate(59,635)"/>
<path d="M0 0 C0.66 0.33 1.32 0.66 2 1 C-3.625 6 -3.625 6 -7 6 C-7.268125 6.598125 -7.53625 7.19625 -7.8125 7.8125 C-8.98493467 9.97224808 -10.19369282 11.35790256 -12 13 C-12.99 12.34 -13.98 11.68 -15 11 C-13.68 10.67 -12.36 10.34 -11 10 C-10.93683594 9.40832031 -10.87367188 8.81664063 -10.80859375 8.20703125 C-9.6629405 5.08000667 -7.90742401 4.33241302 -5.0625 2.6875 C-3.71865234 1.88892578 -3.71865234 1.88892578 -2.34765625 1.07421875 C-1.57292969 0.71972656 -0.79820312 0.36523438 0 0 Z " fill="#043866" transform="translate(171,64)"/>
<path d="M0 0 C0 3.58912412 -0.66436554 4.10857029 -3 6.6875 C-3.556875 7.31011719 -4.11375 7.93273437 -4.6875 8.57421875 C-5.120625 9.04472656 -5.55375 9.51523438 -6 10 C-6.33 9.34 -6.66 8.68 -7 8 C-4.69 5.36 -2.38 2.72 0 0 Z M-9 10 C-8.34 10 -7.68 10 -7 10 C-8.66751148 13.94139078 -11.22710649 16.7892812 -14 20 C-14.33 19.34 -14.66 18.68 -15 18 C-14.34 17.01 -13.68 16.02 -13 15 C-12.34 15 -11.68 15 -11 15 C-10.34 13.35 -9.68 11.7 -9 10 Z " fill="#002C59" transform="translate(78,121)"/>
<path d="M0 0 C0.33 0 0.66 0 1 0 C1.02505615 0.61520508 1.0501123 1.23041016 1.07592773 1.86425781 C1.19218487 4.65970156 1.31477642 7.45483298 1.4375 10.25 C1.47681641 11.21808594 1.51613281 12.18617188 1.55664062 13.18359375 C1.59853516 14.11816406 1.64042969 15.05273438 1.68359375 16.015625 C1.72025146 16.87446289 1.75690918 17.73330078 1.79467773 18.61816406 C1.92588867 20.97878521 1.92588867 20.97878521 2.57836914 23.10839844 C3.23336079 26.04694811 2.05852381 28.26029132 1 31 C0.67 31 0.34 31 0 31 C0 20.77 0 10.54 0 0 Z " fill="#012A4D" transform="translate(1,120)"/>
<path d="M0 0 C0.66 0 1.32 0 2 0 C2 0.99 2 1.98 2 3 C1.34 3 0.68 3 0 3 C-0.103125 3.7425 -0.20625 4.485 -0.3125 5.25 C-1.04933797 8.1973519 -1.94799142 9.78383074 -4 12 C-4.66 12 -5.32 12 -6 12 C-6 12.66 -6 13.32 -6 14 C-6.66 14 -7.32 14 -8 14 C-7.25 11.125 -7.25 11.125 -6 8 C-4.66666667 7.33333333 -3.33333333 6.66666667 -2 6 C-0.70768358 2.95800528 -0.70768358 2.95800528 0 0 Z " fill="#033C69" transform="translate(176,686)"/>
<path d="M0 0 C1.32 0.33 2.64 0.66 4 1 C3.360625 1.268125 2.72125 1.53625 2.0625 1.8125 C-0.33131686 2.88667752 -0.33131686 2.88667752 -1 6 C-2.84765625 7.38671875 -2.84765625 7.38671875 -5.0625 8.6875 C-6.16271484 9.34298828 -6.16271484 9.34298828 -7.28515625 10.01171875 C-7.85105469 10.33785156 -8.41695313 10.66398438 -9 11 C-9 8 -9 8 -6.75 5.375 C-4.27118796 3.23420779 -3.16431511 2.35159057 0 2 C0 1.34 0 0.68 0 0 Z " fill="#06406E" transform="translate(376,628)"/>
<path d="M0 0 C0.66 0 1.32 0 2 0 C0.1196076 7.33353035 -4.34112759 13.99407441 -10 19 C-9.29445932 15.33118845 -7.72264494 12.29549466 -6 9 C-5.34 9 -4.68 9 -4 9 C-4 8.01 -4 7.02 -4 6 C-3.34 5.67 -2.68 5.34 -2 5 C-1.27840576 3.35636866 -0.60648579 1.68949614 0 0 Z " fill="#023866" transform="translate(122,384)"/>
<path d="M0 0 C-2.78871177 1.33957921 -5.58143062 2.67058435 -8.375 4 C-9.1690625 4.3815625 -9.963125 4.763125 -10.78125 5.15625 C-11.54179687 5.5171875 -12.30234375 5.878125 -13.0859375 6.25 C-13.7876709 6.58515625 -14.4894043 6.9203125 -15.21240234 7.265625 C-17 8 -17 8 -19 8 C-18.67 7.01 -18.34 6.02 -18 5 C-14.535 4.505 -14.535 4.505 -11 4 C-11 3.34 -11 2.68 -11 2 C-9.73392393 1.46770674 -8.46189588 0.94955456 -7.1875 0.4375 C-6.47980469 0.14746094 -5.77210938 -0.14257812 -5.04296875 -0.44140625 C-3 -1 -3 -1 0 0 Z " fill="#043A66" transform="translate(155,78)"/>
<path d="M0 0 C1.0625 1.875 1.0625 1.875 2 4 C1.67 4.66 1.34 5.32 1 6 C0.84693099 7.81171098 0.75053339 9.6283794 0.68359375 11.4453125 C0.64169922 12.52167969 0.59980469 13.59804688 0.55664062 14.70703125 C0.51732422 15.83496094 0.47800781 16.96289062 0.4375 18.125 C0.39431641 19.26066406 0.35113281 20.39632813 0.30664062 21.56640625 C0.2003396 24.37747768 0.09830595 27.18863945 0 30 C-0.33 30 -0.66 30 -1 30 C-1.02896822 25.56251365 -1.04678788 21.12505153 -1.0625 16.6875 C-1.07087891 15.42486328 -1.07925781 14.16222656 -1.08789062 12.86132812 C-1.09111328 11.65283203 -1.09433594 10.44433594 -1.09765625 9.19921875 C-1.10289307 8.08377686 -1.10812988 6.96833496 -1.11352539 5.8190918 C-1 3 -1 3 0 0 Z " fill="#01355C" transform="translate(2,355)"/>
<path d="M0 0 C-5.18283647 3.08764726 -10.45191827 5.63483137 -16 8 C-16.33 7.01 -16.66 6.02 -17 5 C-15.02 4.67 -13.04 4.34 -11 4 C-11 3.34 -11 2.68 -11 2 C-9.35 2 -7.7 2 -6 2 C-6 1.34 -6 0.68 -6 0 C-2.25 -1.125 -2.25 -1.125 0 0 Z " fill="#033159" transform="translate(102,325)"/>
<path d="M0 0 C3.47244094 4.62992126 3.47244094 4.62992126 3 9 C2.67 9.33 2.34 9.66 2 10 C1.76636119 11.84891946 1.58696365 13.70488031 1.4375 15.5625 C1.35371094 16.57441406 1.26992188 17.58632813 1.18359375 18.62890625 C1.12300781 19.41136719 1.06242188 20.19382812 1 21 C0.67 21 0.34 21 0 21 C0 14.07 0 7.14 0 0 Z " fill="#02345B" transform="translate(1,243)"/>
<path d="M0 0 C1.60461448 4.01153621 0.45438973 7.07314774 -1 11 C-1.99 11.66 -2.98 12.32 -4 13 C-4 10.69 -4 8.38 -4 6 C-3.01 5.67 -2.02 5.34 -1 5 C-0.67 3.35 -0.34 1.7 0 0 Z " fill="#002B4D" transform="translate(149,523)"/>
<path d="M0 0 C1.3238515 2.64770301 0.72884003 3.54487403 -0.1875 6.3125 C-1.53152851 10.17035961 -3.18075761 12.9863271 -6 16 C-5.52412884 9.97229862 -2.80277043 5.23321711 0 0 Z " fill="#08487A" transform="translate(102,72)"/>
<path d="M0 0 C0.99 0.66 1.98 1.32 3 2 C2.06692579 3.44037669 1.12834923 4.87718985 0.1875 6.3125 C-0.33457031 7.11300781 -0.85664063 7.91351562 -1.39453125 8.73828125 C-2.80389849 10.7237402 -4.22096657 12.3491852 -6 14 C-7 12 -7 12 -6.3125 9.625 C-4.9011198 6.80223959 -3.25093824 5.17832733 -1 3 C-0.67 2.01 -0.34 1.02 0 0 Z " fill="#022544" transform="translate(265,613)"/>
<path d="M0 0 C2.69082872 0.17635452 5.32851446 0.61835921 8 1 C8 1.33 8 1.66 8 2 C1.25846717 3.25841946 -5.13484138 4.26404456 -12 4 C-8.45917084 1.8755025 -5.05008109 1.53491637 -1 1 C-0.67 0.67 -0.34 0.34 0 0 Z " fill="#022E52" transform="translate(105,475)"/>
<path d="M0 0 C1.32 0.33 2.64 0.66 4 1 C3.4225 1.515625 2.845 2.03125 2.25 2.5625 C0.34271773 4.62872246 -0.79877976 6.26440587 -2.125 8.6875 C-4 12 -4 12 -6 13 C-4.58707905 8.1725201 -2.57025846 4.2837641 0 0 Z " fill="#013463" transform="translate(11,221)"/>
<path d="M0 0 C-1.66751148 3.94139078 -4.22710649 6.7892812 -7 10 C-7.99 9.34 -8.98 8.68 -10 8 C-9.01 7.67 -8.02 7.34 -7 7 C-6.29848848 5.6846659 -5.63474075 4.34882408 -5 3 C-2.42857143 0 -2.42857143 0 0 0 Z " fill="#0A4474" transform="translate(91,105)"/>
<path d="M0 0 C1.65 0 3.3 0 5 0 C3.68206814 5.66710699 1.51290803 7.66437233 -3 11 C-1.50163895 7.88801935 0.19933758 4.9465385 2 2 C1.01 2.33 0.02 2.66 -1 3 C-0.67 2.01 -0.34 1.02 0 0 Z " fill="#033B6C" transform="translate(382,626)"/>
<path d="M0 0 C0.99 0.66 1.98 1.32 3 2 C1.02 5.63 -0.96 9.26 -3 13 C-3.66 13 -4.32 13 -5 13 C-4.32116957 9.88452559 -3.25893098 7.14862279 -1.9375 4.25 C-1.57527344 3.45078125 -1.21304688 2.6515625 -0.83984375 1.828125 C-0.56269531 1.22484375 -0.28554687 0.6215625 0 0 Z " fill="#0A4775" transform="translate(88,95)"/>
<path d="M0 0 C0.66 0 1.32 0 2 0 C1.42415568 2.38564077 0.77772405 4.66682784 0 7 C-3.96 7 -7.92 7 -12 7 C-9 5 -9 5 -6 4.625 C-2.88909597 4.29749495 -2.88909597 4.29749495 -1.25 1.9375 C-0.8375 1.298125 -0.425 0.65875 0 0 Z " fill="#012A4C" transform="translate(246,673)"/>
<path d="M0 0 C0.66 0.33 1.32 0.66 2 1 C1.06027344 2.03060547 1.06027344 2.03060547 0.1015625 3.08203125 C-0.71570313 3.98308594 -1.53296875 4.88414062 -2.375 5.8125 C-3.18710937 6.70582031 -3.99921875 7.59914063 -4.8359375 8.51953125 C-7.09072907 10.99632674 -7.09072907 10.99632674 -9 14 C-9 12.35 -9 10.7 -9 9 C-8.01 8.67 -7.02 8.34 -6 8 C-5.31513275 6.67592331 -4.65129797 5.34090759 -4 4 C-2.70529025 2.62913085 -1.37849103 1.28659163 0 0 Z " fill="#001E40" transform="translate(437,648)"/>
<path d="M0 0 C2.64 0 5.28 0 8 0 C8 0.33 8 0.66 8 1 C6.453125 1.4021875 6.453125 1.4021875 4.875 1.8125 C1.34860912 2.81390918 -1.76286965 4.26851168 -5 6 C-5.99 6.495 -5.99 6.495 -7 7 C-7.66 6.34 -8.32 5.68 -9 5 C-6.03 4.01 -3.06 3.02 0 2 C0 1.34 0 0.68 0 0 Z " fill="#023E70" transform="translate(37,224)"/>
<path d="M0 0 C0.66 0.33 1.32 0.66 2 1 C0.61341021 2.15700194 -0.78472441 3.30017623 -2.1875 4.4375 C-2.96480469 5.07558594 -3.74210937 5.71367188 -4.54296875 6.37109375 C-7.10825071 8.07176557 -8.97328271 8.61830031 -12 9 C-12 8.34 -12 7.68 -12 7 C-11.21753906 6.57847656 -10.43507813 6.15695312 -9.62890625 5.72265625 C-8.61699219 5.17480469 -7.60507812 4.62695312 -6.5625 4.0625 C-5.55316406 3.51722656 -4.54382813 2.97195313 -3.50390625 2.41015625 C-1.13329507 1.22300532 -1.13329507 1.22300532 0 0 Z " fill="#013C6D" transform="translate(342,652)"/>
<path d="M0 0 C0.33 0.99 0.66 1.98 1 3 C-0.27358732 4.71275535 -1.61423077 6.37667033 -3 8 C-3.70885894 9.31138904 -4.39456452 10.63777017 -5 12 C-6 9 -6 9 -4.75 6 C-3.30850189 3.52886039 -2.14369083 1.83744929 0 0 Z " fill="#033A67" transform="translate(100,420)"/>
<path d="M0 0 C0.66 0.33 1.32 0.66 2 1 C0.73548068 2.31858428 -0.53685475 3.62967631 -1.8125 4.9375 C-2.52019531 5.66839844 -3.22789062 6.39929688 -3.95703125 7.15234375 C-6 9 -6 9 -9 10 C-8.67 9.01 -8.34 8.02 -8 7 C-7.34 7 -6.68 7 -6 7 C-6 6.01 -6 5.02 -6 4 C-3.5625 2.375 -3.5625 2.375 -1 1 C-0.67 0.67 -0.34 0.34 0 0 Z " fill="#022A4B" transform="translate(348,668)"/>
<path d="M0 0 C0.66 0 1.32 0 2 0 C1.88570603 1.77155654 1.75816963 3.54226229 1.625 5.3125 C1.52058594 6.79169922 1.52058594 6.79169922 1.4140625 8.30078125 C1 11 1 11 -1 14 C-1.027193 12.41676312 -1.04648306 10.83338938 -1.0625 9.25 C-1.07410156 8.36828125 -1.08570313 7.4865625 -1.09765625 6.578125 C-1.00826198 4.2181162 -0.66912821 2.25501476 0 0 Z " fill="#043A65" transform="translate(173,438)"/>
<path d="M0 0 C0.33 0.66 0.66 1.32 1 2 C0.67 2.928125 0.34 3.85625 0 4.8125 C-1.04501557 8.14348713 -0.96712471 9.71177599 0 13 C-0.33 12.01 -0.66 11.02 -1 10 C-1.66 10 -2.32 10 -3 10 C-2.88637738 8.5199159 -2.75877092 7.04089926 -2.625 5.5625 C-2.55539063 4.73878906 -2.48578125 3.91507813 -2.4140625 3.06640625 C-2.27742188 2.38449219 -2.14078125 1.70257812 -2 1 C-1.34 0.67 -0.68 0.34 0 0 Z " fill="#023A69" transform="translate(28,534)"/>
<path d="M0 0 C0.86625 0.12375 1.7325 0.2475 2.625 0.375 C0.07418171 3.35095467 -2.80934437 4.81502566 -6.375 6.375 C-7.365 6.375 -8.355 6.375 -9.375 6.375 C-4.20576923 0.46730769 -4.20576923 0.46730769 0 0 Z " fill="#083E6B" transform="translate(125.375,307.625)"/>
<path d="M0 0 C0.12375 0.639375 0.2475 1.27875 0.375 1.9375 C0.684375 2.9584375 0.684375 2.9584375 1 4 C1.66 4.33 2.32 4.66 3 5 C-2.75 9 -2.75 9 -5 9 C-4 7 -3 5 -2 3 C-1.34 3 -0.68 3 0 3 C0 2.01 0 1.02 0 0 Z " fill="#003262" transform="translate(53,152)"/>
<path d="M0 0 C0.99 0.99 1.98 1.98 3 3 C2.67 3.99 2.34 4.98 2 6 C1.34 6 0.68 6 0 6 C-0.66 7.65 -1.32 9.3 -2 11 C-3.13643966 7.59068103 -2.86747764 6.99664544 -1.5625 3.8125 C-1.13130859 2.73935547 -1.13130859 2.73935547 -0.69140625 1.64453125 C-0.46324219 1.10183594 -0.23507813 0.55914062 0 0 Z " fill="#002853" transform="translate(61,128)"/>
<path d="M0 0 C2.46313739 1.82748903 3.83428618 3.22976216 4.48828125 6.26953125 C4.72518293 8.51479346 4.90361349 10.74455578 5 13 C1.55834073 8.77614544 0 5.49939416 0 0 Z " fill="#01315E" transform="translate(28,547)"/>
<path d="M0 0 C0.66 0.33 1.32 0.66 2 1 C2 1.99 2 2.98 2 4 C-0.31 5.32 -2.62 6.64 -5 8 C-3.62845496 5.04590299 -2.01136276 2.55991624 0 0 Z " fill="#002F5D" transform="translate(93,103)"/>
<path d="M0 0 C0.66 0.33 1.32 0.66 2 1 C-0.475 2.485 -0.475 2.485 -3 4 C-2.67 3.01 -2.34 2.02 -2 1 C-1.34 0.67 -0.68 0.34 0 0 Z M-6 4 C-5.01 4.33 -4.02 4.66 -3 5 C-4.485 6.485 -4.485 6.485 -6 8 C-6.99 7.67 -7.98 7.34 -9 7 C-8.01 6.01 -7.02 5.02 -6 4 Z " fill="#003F71" transform="translate(273,696)"/>
<path d="M0 0 C0.33 0.66 0.66 1.32 1 2 C0.0625 4.125 0.0625 4.125 -1 6 C-1.66 6 -2.32 6 -3 6 C-3.66 7.32 -4.32 8.64 -5 10 C-5 5.63755776 -3.03368793 3.03368793 0 0 Z " fill="#003A66" transform="translate(184,676)"/>
<path d="M0 0 C0.66 0.33 1.32 0.66 2 1 C-0.77280706 4.08089673 -3.06326356 5.68775452 -7 7 C-7 6.34 -7 5.68 -7 5 C-5.46875 3.7109375 -5.46875 3.7109375 -3.5 2.375 C-2.8503125 1.92898437 -2.200625 1.48296875 -1.53125 1.0234375 C-1.0259375 0.68570313 -0.520625 0.34796875 0 0 Z " fill="#074171" transform="translate(63,150)"/>
<path d="M0 0 C0.66 0 1.32 0 2 0 C0.79157144 4.43090471 -0.51668565 6.98112756 -4 10 C-3.52449439 8.51965236 -3.04448784 7.04074979 -2.5625 5.5625 C-2.29566406 4.73878906 -2.02882812 3.91507813 -1.75390625 3.06640625 C-1 1 -1 1 0 0 Z " fill="#042D51" transform="translate(225,672)"/>
<path d="M0 0 C1.9375 0.3125 1.9375 0.3125 4 1 C4.33 1.99 4.66 2.98 5 4 C3.68 4.33 2.36 4.66 1 5 C0.67 3.35 0.34 1.7 0 0 Z " fill="#02284C" transform="translate(59,635)"/>
<path d="M0 0 C0.66 0.33 1.32 0.66 2 1 C0.08864614 4.53600465 -1.62642766 6.78972846 -5 9 C-3.7508258 5.54074837 -2.32472205 2.85306797 0 0 Z " fill="#013E71" transform="translate(293,533)"/>
<path d="M0 0 C2.64 0 5.28 0 8 0 C5.64031256 2.09749995 4.45383006 2.96905704 1.25 3.1875 C0.13625 3.0946875 0.13625 3.0946875 -1 3 C-0.67 2.01 -0.34 1.02 0 0 Z " fill="#04335C" transform="translate(77,332)"/>
<path d="M0 0 C0.66 0.33 1.32 0.66 2 1 C2 3 2 3 -0.375 5.5625 C-3 8 -3 8 -5 9 C-5 5 -5 5 -2.5 2.25 C-1.675 1.5075 -0.85 0.765 0 0 Z " fill="#023765" transform="translate(181,293)"/>
<path d="M0 0 C0.66 0 1.32 0 2 0 C1.38461538 5.53846154 1.38461538 5.53846154 -0.5625 7.875 C-1.036875 8.24625 -1.51125 8.6175 -2 9 C-2 5.61976483 -1.12544378 3.16531063 0 0 Z " fill="#0A477B" transform="translate(58,130)"/>
<path d="M0 0 C0.66 0.33 1.32 0.66 2 1 C2 1.66 2 2.32 2 3 C0.02 3.33 -1.96 3.66 -4 4 C-4 4.66 -4 5.32 -4 6 C-4.66 5.67 -5.32 5.34 -6 5 C-2.25 1.125 -2.25 1.125 0 0 Z " fill="#064171" transform="translate(100,321)"/>
<path d="M0 0 C1.98 0 3.96 0 6 0 C4 3 4 3 0.875 3.6875 C-0.07375 3.790625 -1.0225 3.89375 -2 4 C-1.34 2.68 -0.68 1.36 0 0 Z " fill="#063F6F" transform="translate(6,237)"/>
<path d="M0 0 C1.25541557 3.76624671 0.37061958 5.37188934 -1 9 C-1.66 8.67 -2.32 8.34 -3 8 C-2.67 6.02 -2.34 4.04 -2 2 C-1.34 2 -0.68 2 0 2 C0 1.34 0 0.68 0 0 Z " fill="#094A7C" transform="translate(62,120)"/>
<path d="M0 0 C0.66 0.33 1.32 0.66 2 1 C1.60196439 3.88575819 1.20990931 4.82189513 -1.0625 6.75 C-1.701875 7.1625 -2.34125 7.575 -3 8 C-1.125 2.25 -1.125 2.25 0 0 Z " fill="#012B55" transform="translate(111,59)"/>
<path d="M0 0 C-0.33 0.99 -0.66 1.98 -1 3 C-4.5625 4.1875 -4.5625 4.1875 -8 5 C-3.16129032 0 -3.16129032 0 0 0 Z " fill="#044271" transform="translate(24,224)"/>
<path d="M0 0 C0.99 0.66 1.98 1.32 3 2 C2 4 1 6 0 8 C-0.66 8 -1.32 8 -2 8 C-1.34 5.36 -0.68 2.72 0 0 Z " fill="#074376" transform="translate(47,147)"/>
<path d="M0 0 C0.66 0.33 1.32 0.66 2 1 C1.375 2.875 1.375 2.875 0 5 C-3.125 6.25 -3.125 6.25 -6 7 C-4.02 4.69 -2.04 2.38 0 0 Z " fill="#003E6C" transform="translate(102,90)"/>
</svg>
